<svg xmlns="http://www.w3.org/2000/svg" xmlns:xlink="http://www.w3.org/1999/xlink" width="1080" zoomAndPan="magnify" viewBox="0 0 810 809.999993" height="1080" preserveAspectRatio="xMidYMid meet" version="1.0"><path fill="#ffffff" d="M 404.996094 0 C 395.4375 0 385.882812 0.339844 376.351562 1.015625 C 362.882812 1.972656 349.46875 3.597656 336.160156 5.890625 C 322.855469 8.1875 309.671875 11.148438 296.660156 14.761719 C 283.648438 18.371094 270.828125 22.632812 258.242188 27.523438 C 245.660156 32.417969 233.324219 37.9375 221.292969 44.0625 C 209.257812 50.1875 197.535156 56.910156 186.171875 64.207031 C 174.8125 71.503906 163.820312 79.359375 153.242188 87.753906 C 142.667969 96.148438 132.519531 105.066406 122.832031 114.472656 C 113.148438 123.878906 103.9375 133.765625 95.238281 144.09375 C 86.539062 154.421875 78.363281 165.175781 70.738281 176.320312 C 63.113281 187.464844 56.050781 198.984375 49.574219 210.832031 C 43.101562 222.679688 37.226562 234.847656 31.96875 247.285156 C 26.710938 259.722656 22.078125 272.414062 18.089844 285.3125 C 14.097656 298.214844 10.757812 311.304688 8.074219 324.542969 C 5.390625 337.773438 3.371094 351.132812 2.019531 364.570312 C 0.675781 378.003906 0 391.496094 0 405 C -0.00390625 414.558594 0.335938 424.113281 1.011719 433.648438 C 1.964844 447.117188 3.59375 460.53125 5.886719 473.839844 C 8.183594 487.144531 11.144531 500.328125 14.757812 513.339844 C 18.371094 526.351562 22.628906 539.171875 27.523438 551.757812 C 32.417969 564.339844 37.933594 576.675781 44.058594 588.707031 C 50.183594 600.742188 56.90625 612.460938 64.203125 623.824219 C 71.5 635.183594 79.355469 646.175781 87.75 656.753906 C 96.144531 667.328125 105.0625 677.480469 114.46875 687.167969 C 123.875 696.851562 133.761719 706.0625 144.089844 714.761719 C 154.417969 723.460938 165.171875 731.636719 176.316406 739.261719 C 187.460938 746.886719 198.980469 753.949219 210.832031 760.425781 C 222.679688 766.898438 234.847656 772.773438 247.28125 778.03125 C 259.722656 783.289062 272.414062 787.921875 285.3125 791.910156 C 298.214844 795.902344 311.304688 799.242188 324.539062 801.925781 C 337.769531 804.609375 351.128906 806.628906 364.5625 807.980469 C 378 809.324219 391.492188 810 404.996094 810 C 414.554688 810 424.109375 809.660156 433.644531 808.984375 C 447.113281 808.027344 460.527344 806.402344 473.835938 804.105469 C 487.140625 801.8125 500.324219 798.851562 513.335938 795.242188 C 526.347656 791.628906 539.167969 787.371094 551.753906 782.476562 C 564.335938 777.582031 576.671875 772.0625 588.703125 765.9375 C 600.738281 759.816406 612.460938 753.09375 623.824219 745.796875 C 635.183594 738.5 646.175781 730.640625 656.753906 722.246094 C 667.328125 713.851562 677.476562 704.9375 687.164062 695.53125 C 696.847656 686.125 706.058594 676.238281 714.757812 665.910156 C 723.457031 655.582031 731.632812 644.824219 739.257812 633.679688 C 746.882812 622.535156 753.945312 611.015625 760.417969 599.167969 C 766.894531 587.316406 772.769531 575.148438 778.027344 562.714844 C 783.285156 550.277344 787.917969 537.585938 791.90625 524.683594 C 795.898438 511.785156 799.238281 498.695312 801.921875 485.460938 C 804.605469 472.226562 806.625 458.867188 807.976562 445.429688 C 809.320312 431.996094 809.996094 418.503906 809.996094 405 C 809.996094 395.441406 809.660156 385.886719 808.984375 376.351562 C 808.027344 362.882812 806.402344 349.472656 804.109375 336.164062 C 801.8125 322.859375 798.851562 309.675781 795.238281 296.664062 C 791.625 283.652344 787.367188 270.832031 782.472656 258.246094 C 777.578125 245.664062 772.0625 233.328125 765.9375 221.296875 C 759.8125 209.261719 753.089844 197.539062 745.792969 186.175781 C 738.496094 174.816406 730.640625 163.824219 722.246094 153.246094 C 713.851562 142.671875 704.933594 132.523438 695.527344 122.835938 C 686.121094 113.148438 676.234375 103.9375 665.90625 95.238281 C 655.578125 86.542969 644.824219 78.363281 633.679688 70.742188 C 622.535156 63.117188 611.015625 56.054688 599.164062 49.582031 C 587.3125 43.105469 575.148438 37.230469 562.714844 31.972656 C 550.273438 26.714844 537.582031 22.078125 524.679688 18.089844 C 511.78125 14.097656 498.691406 10.757812 485.457031 8.074219 C 472.226562 5.390625 458.867188 3.371094 445.429688 2.023438 C 431.996094 0.675781 418.5 0 404.996094 0 Z M 404.996094 0 " fill-opacity="1" fill-rule="nonzero"/><path fill="#ff0000" d="M 404.996094 0 C 395.4375 0 385.882812 0.339844 376.351562 1.015625 C 368.234375 1.753906 360.140625 2.734375 352.082031 3.957031 L 352.085938 324.335938 L 8.125 324.335938 C 8.109375 324.402344 8.089844 324.472656 8.074219 324.542969 C 5.390625 337.777344 3.371094 351.136719 2.023438 364.570312 C 0.675781 378.003906 0 391.496094 0 405 C 0 414.558594 0.335938 424.117188 1.011719 433.652344 C 1.96875 447.121094 3.59375 460.53125 5.890625 473.839844 C 7.019531 479.425781 8.269531 484.988281 9.636719 490.523438 L 352.085938 490.523438 L 352.085938 806.09375 C 356.234375 806.785156 360.394531 807.417969 364.5625 807.980469 C 378 809.328125 391.492188 810.003906 404.996094 810.003906 C 414.554688 810 424.113281 809.660156 433.644531 808.988281 C 441.496094 808.265625 449.328125 807.3125 457.125 806.136719 L 457.125 490.523438 L 800.632812 490.523438 C 801.074219 488.839844 801.503906 487.152344 801.921875 485.464844 C 804.605469 472.230469 806.628906 458.871094 807.976562 445.433594 C 809.324219 431.996094 809.996094 418.503906 809.996094 405 C 809.996094 395.441406 809.660156 385.886719 808.988281 376.351562 C 808.03125 362.882812 806.402344 349.472656 804.109375 336.167969 C 803.28125 332.210938 802.394531 328.265625 801.453125 324.335938 L 457.125 324.335938 L 457.125 3.792969 C 453.238281 3.148438 449.339844 2.558594 445.429688 2.027344 C 431.996094 0.675781 418.5 0.00390625 404.996094 0 Z M 667.242188 96.484375 L 493.324219 267.070312 L 554.734375 267.070312 L 700.136719 128.082031 C 698.613281 126.324219 697.078125 124.570312 695.527344 122.835938 C 686.523438 113.609375 677.085938 104.8125 667.242188 96.484375 Z M 111.285156 126.871094 C 105.769531 132.457031 100.417969 138.199219 95.238281 144.09375 C 90.199219 150.328125 85.347656 156.707031 80.691406 163.230469 L 189.339844 267.074219 L 257.980469 267.074219 Z M 315.878906 547.773438 L 251.796875 547.773438 L 110.589844 682.742188 C 111.871094 684.226562 113.164062 685.699219 114.46875 687.164062 C 123.855469 696.828125 133.722656 706.019531 144.027344 714.699219 L 315.878906 547.769531 Z M 551.691406 547.773438 L 696.164062 685.867188 C 702.582031 679.425781 708.785156 672.765625 714.757812 665.90625 C 718.980469 660.632812 723.070312 655.253906 727.023438 649.773438 L 620.300781 547.773438 Z M 551.691406 547.773438 " fill-opacity="1" fill-rule="nonzero"/><path fill="#000080" d="M 493.140625 10.035156 L 493.140625 231.410156 L 649.585938 82.832031 C 644.382812 78.671875 639.078125 74.640625 633.679688 70.742188 C 622.535156 63.117188 611.015625 56.054688 599.164062 49.582031 C 587.3125 43.105469 575.148438 37.230469 562.714844 31.972656 C 550.273438 26.714844 537.582031 22.078125 524.679688 18.089844 C 514.28125 14.980469 503.757812 12.292969 493.140625 10.035156 Z M 315.636719 10.503906 C 309.277344 11.769531 302.953125 13.191406 296.660156 14.761719 C 283.648438 18.371094 270.828125 22.632812 258.242188 27.523438 C 245.660156 32.417969 233.324219 37.9375 221.292969 44.0625 C 209.257812 50.1875 197.535156 56.910156 186.171875 64.207031 C 177.0625 70.179688 168.195312 76.519531 159.59375 83.210938 L 315.636719 231.410156 Z M 739.523438 177.40625 L 645.664062 266.953125 L 785.363281 266.953125 C 784.433594 264.039062 783.46875 261.136719 782.472656 258.246094 C 777.578125 245.664062 772.0625 233.328125 765.9375 221.296875 C 759.8125 209.261719 753.089844 197.539062 745.792969 186.175781 C 743.742188 183.226562 741.652344 180.300781 739.523438 177.40625 Z M 69.484375 178.363281 C 62.34375 188.871094 55.699219 199.703125 49.574219 210.832031 C 43.101562 222.679688 37.226562 234.847656 31.96875 247.285156 C 29.40625 253.777344 27.011719 260.335938 24.789062 266.953125 L 162.339844 266.953125 Z M 25.933594 546.976562 C 26.453125 548.574219 26.984375 550.167969 27.523438 551.757812 C 32.417969 564.339844 37.933594 576.675781 44.058594 588.707031 C 50.183594 600.742188 56.90625 612.460938 64.203125 623.824219 C 66.53125 627.183594 68.90625 630.507812 71.335938 633.796875 L 162.339844 546.976562 Z M 645.664062 546.976562 L 738.121094 635.175781 C 738.5 634.679688 738.878906 634.179688 739.257812 633.679688 C 746.882812 622.535156 753.945312 611.015625 760.417969 599.167969 C 766.894531 587.316406 772.769531 575.148438 778.027344 562.714844 C 780.050781 557.507812 781.964844 552.261719 783.773438 546.976562 Z M 315.636719 580.359375 L 160.769531 727.441406 C 165.855469 731.503906 171.039062 735.445312 176.316406 739.261719 C 187.460938 746.886719 198.980469 753.949219 210.832031 760.425781 C 222.679688 766.898438 234.847656 772.773438 247.28125 778.03125 C 259.722656 783.289062 272.414062 787.921875 285.316406 791.910156 C 295.316406 794.882812 305.433594 797.464844 315.636719 799.65625 Z M 493.140625 580.359375 L 493.140625 799.773438 C 499.910156 798.4375 506.640625 796.921875 513.335938 795.242188 C 526.347656 791.628906 539.167969 787.371094 551.753906 782.476562 C 564.335938 777.582031 576.671875 772.0625 588.703125 765.9375 C 600.738281 759.816406 612.460938 753.09375 623.824219 745.796875 C 632.316406 740.191406 640.597656 734.269531 648.648438 728.042969 Z M 493.140625 580.359375 " fill-opacity="1" fill-rule="evenodd"/></svg>