<svg xmlns="http://www.w3.org/2000/svg" xmlns:xlink="http://www.w3.org/1999/xlink" width="1080" zoomAndPan="magnify" viewBox="0 0 810 809.999993" height="1080" preserveAspectRatio="xMidYMid meet" version="1.0"><path fill="#f7c900" d="M 404.984375 0 C 628.6875 0 809.972656 181.304688 809.972656 404.925781 C 809.972656 628.714844 628.695312 810.027344 404.984375 810.027344 C 181.394531 810.027344 0 628.714844 0 404.925781 C 0 181.304688 181.394531 0 404.984375 0 " fill-opacity="1" fill-rule="nonzero"/><path fill="#8a263d" d="M 317.613281 768.070312 L 317.613281 41.957031 C 345.65625 35.21875 374.894531 31.527344 404.984375 31.527344 C 611.261719 31.527344 778.382812 198.828125 778.382812 404.925781 C 778.382812 611.199219 611.253906 778.320312 404.984375 778.320312 C 374.894531 778.328125 345.648438 774.808594 317.613281 768.070312 " fill-opacity="1" fill-rule="nonzero"/><path fill="#006633" d="M 158.191406 124.875 L 158.191406 685.152344 C 80.601562 616.761719 31.582031 516.558594 31.582031 404.925781 C 31.582031 293.46875 80.601562 193.261719 158.191406 124.875 " fill-opacity="1" fill-rule="nonzero"/><path fill="#e66b14" d="M 158.191406 685.152344 L 158.191406 124.875 C 195.753906 91.710938 239.90625 66.15625 288.429688 50.160156 L 288.429688 759.863281 C 239.90625 743.863281 195.753906 718.136719 158.191406 685.152344 " fill-opacity="1" fill-rule="nonzero"/><path fill="#f7c900" d="M 326.929688 211.71875 L 328.6875 210.371094 L 336.980469 218.222656 C 339.503906 215.230469 343.691406 214.882812 347.238281 215.230469 L 353.09375 218.394531 C 356.902344 224.546875 359.714844 231.230469 362.707031 237.617188 L 365.488281 243.359375 L 365.667969 244.472656 L 356.46875 243.007812 C 351.136719 242.59375 345.835938 242.242188 340.707031 240.546875 C 336.988281 239.253906 332.972656 237.027344 331.597656 233.101562 L 331.597656 226.246094 L 332.332031 223.957031 L 332.800781 222.664062 L 334.003906 220.4375 C 333.171875 216.523438 329.625 214.296875 326.929688 211.71875 " fill-opacity="1" fill-rule="nonzero"/><path fill="#f7c900" d="M 716.0625 211.71875 L 714.300781 210.371094 L 706.101562 218.222656 C 703.578125 215.230469 699.390625 214.882812 695.84375 215.230469 L 689.984375 218.394531 C 686.058594 224.546875 683.363281 231.230469 680.285156 237.617188 L 677.589844 243.359375 L 677.410156 244.472656 L 686.609375 243.007812 C 691.828125 242.59375 697.246094 242.242188 702.285156 240.546875 C 706.09375 239.253906 710.019531 237.027344 711.484375 233.101562 L 711.394531 226.246094 L 710.746094 223.957031 L 710.191406 222.664062 L 708.988281 220.4375 C 709.910156 216.523438 713.367188 214.296875 716.0625 211.71875 " fill-opacity="1" fill-rule="nonzero"/><path fill="#f7c900" d="M 326.929688 598.128906 L 328.6875 599.476562 L 336.980469 591.796875 C 339.503906 594.609375 343.691406 594.960938 347.238281 594.609375 L 353.09375 591.445312 C 356.902344 585.292969 359.714844 578.558594 362.707031 572.226562 L 365.488281 566.484375 L 365.667969 565.371094 L 356.46875 566.835938 C 351.136719 567.1875 345.835938 567.769531 340.707031 569.234375 C 336.988281 570.582031 332.972656 572.808594 331.597656 576.734375 L 331.597656 583.589844 L 332.332031 585.816406 L 332.800781 587.164062 L 334.003906 589.390625 C 333.171875 593.324219 329.625 595.550781 326.929688 598.128906 " fill-opacity="1" fill-rule="nonzero"/><path fill="#f7c900" d="M 716.0625 598.128906 L 714.300781 599.476562 L 706.101562 591.796875 C 703.578125 594.609375 699.390625 594.960938 695.84375 594.609375 L 689.984375 591.445312 C 686.058594 585.292969 683.363281 578.558594 680.285156 572.226562 L 677.589844 566.484375 L 677.410156 565.371094 L 686.609375 566.835938 C 691.828125 567.1875 697.246094 567.769531 702.285156 569.234375 C 706.09375 570.582031 710.019531 572.808594 711.484375 576.734375 L 711.394531 583.589844 L 710.746094 585.816406 L 710.191406 587.164062 L 708.988281 589.390625 C 709.910156 593.324219 713.367188 595.550781 716.0625 598.128906 " fill-opacity="1" fill-rule="nonzero"/><path fill="#f7c900" d="M 415.066406 306.359375 L 420.632812 297.980469 L 420.195312 300.207031 C 418.316406 309.699219 417.847656 319.601562 417.382812 329.273438 L 417.003906 337.824219 C 416.535156 341.929688 417.121094 346.441406 416.535156 350.480469 C 416.355469 364.484375 416.355469 378.257812 416.355469 392.089844 L 416.734375 401.171875 L 416.914062 409.199219 C 411.433594 411.839844 405.191406 411.25 399.390625 409.964844 L 399.769531 408.265625 L 400.324219 401.410156 C 400.792969 397.835938 400.703125 394.496094 401.261719 390.921875 L 401.996094 382.539062 L 402.464844 375.855469 L 403.316406 368.238281 C 404.167969 362.085938 404.609375 355.761719 405.632812 349.367188 L 406.214844 344.742188 L 407.125 339.351562 L 407.886719 334.839844 L 408.445312 331.148438 L 409.261719 327.046875 L 410.664062 320.714844 L 412.632812 313.445312 L 413.835938 309.34375 L 414.507812 307.824219 Z M 415.066406 306.359375 " fill-opacity="1" fill-rule="nonzero"/><path fill="#f7c900" d="M 439.558594 358.691406 C 445.972656 360.566406 452.683594 360.980469 459.222656 361.332031 C 462.644531 361.507812 466.105469 361.679688 469.5625 361.507812 L 475.160156 360.746094 L 481.488281 366.371094 L 483.25 371.175781 L 483.457031 372.695312 L 477.949219 370.816406 C 473.753906 370.054688 469.363281 370.640625 465.265625 371.753906 L 465.265625 366.714844 L 464.445312 366.183594 C 459.234375 367.476562 453.722656 368.410156 448.332031 367.0625 C 444.304688 365.957031 440.757812 362.796875 439.558594 358.691406 " fill-opacity="1" fill-rule="nonzero"/><path fill="#f7c900" d="M 385.882812 404.339844 L 393.820312 401 L 396.984375 402.285156 L 396.894531 404.746094 L 395.484375 406.621094 L 396.335938 408.265625 C 399.210938 411.257812 403.398438 412.191406 407.414062 412.371094 C 411.894531 412.371094 416.441406 411.605469 420.277344 409.207031 L 419.335938 404.347656 C 421.855469 401.183594 426.980469 403.816406 427.804688 407.160156 L 427.804688 409.96875 C 425.84375 413.664062 421.472656 415.359375 417.546875 416.125 C 410.28125 417.410156 402.75 417.238281 395.746094 415.1875 C 392.40625 414.253906 388.859375 412.726562 386.808594 409.796875 Z M 385.882812 404.339844 " fill-opacity="1" fill-rule="nonzero"/><path fill="#f7c900" d="M 424.730469 418.171875 L 433.40625 419.457031 C 437.214844 421.683594 439.183594 425.789062 440.96875 429.714844 L 443.925781 436.570312 L 445.328125 439.964844 L 450.367188 447.410156 C 454.085938 451.335938 457.632812 455.441406 460.15625 460.066406 L 460.894531 466.804688 L 460.425781 467.738281 L 453.335938 471.433594 C 448.59375 471.253906 444.605469 468.089844 441.328125 464.929688 L 434.734375 456.726562 L 433.125 455.199219 L 432.773438 458.425781 L 432.128906 460.238281 L 428.113281 460.824219 L 421.960938 457.660156 L 421.960938 457.078125 L 425.121094 453.152344 L 426.703125 450.574219 L 426.058594 447.761719 L 425.410156 445.535156 L 421.019531 438.09375 L 423.363281 435.695312 L 421.195312 432.300781 L 423.074219 430.835938 L 422.984375 428.609375 L 421.492188 426.730469 L 423.457031 425.4375 L 422.523438 420.75 L 423.375 420.578125 Z M 424.730469 418.171875 " fill-opacity="1" fill-rule="nonzero"/><path fill="#f7c900" d="M 392.125 419.636719 L 398.277344 419.285156 C 401.4375 419.816406 404.519531 420.398438 407.796875 420.398438 L 416.90625 419.285156 L 419.808594 420.222656 L 419.808594 422.035156 L 412.246094 424.320312 C 407.878906 424.847656 403.398438 424.847656 399.03125 424.320312 L 392.027344 421.507812 Z M 392.125 419.636719 " fill-opacity="1" fill-rule="nonzero"/><path fill="#f7c900" d="M 392.796875 427.308594 L 395.671875 426.546875 C 398.832031 426.726562 402.003906 427.660156 405.191406 427.660156 C 408.828125 427.660156 412.253906 426.546875 415.890625 426.726562 L 418.789062 428.601562 L 415.628906 430.476562 C 410.96875 431.941406 406.015625 431.769531 401.273438 431.59375 L 392.894531 428.953125 Z M 392.796875 427.308594 " fill-opacity="1" fill-rule="nonzero"/><path fill="#f7c900" d="M 402.667969 434.34375 C 407.125 434.925781 411.429688 433.640625 415.882812 433.054688 L 419.25 433.820312 L 418.578125 433.820312 L 418.695312 434.933594 L 410.402344 438.097656 C 406.390625 439.03125 402.203125 438.625 398.1875 437.746094 L 394.46875 435.457031 L 394.289062 435.277344 L 394.847656 433.8125 Z M 402.667969 434.34375 " fill-opacity="1" fill-rule="nonzero"/><path fill="#f7c900" d="M 415.414062 439.210938 L 419.339844 439.03125 L 419.339844 440.324219 L 415.882812 442.550781 C 411.222656 444.25 406.09375 444.597656 401.175781 444.425781 L 394.558594 442.964844 L 393.910156 441.085938 C 397.539062 440.152344 401.175781 440.671875 404.808594 440.5 C 408.355469 440.671875 411.902344 439.964844 415.414062 439.210938 " fill-opacity="1" fill-rule="nonzero"/><path fill="#f7c900" d="M 573.429688 442.371094 C 578.730469 440.144531 584.800781 438.445312 590.566406 439.558594 C 593.820312 440.144531 596.71875 442.019531 598.480469 444.777344 L 600.269531 448.703125 L 600.644531 450.402344 L 600.4375 453.5625 L 599.882812 457.257812 C 598.769531 461.765625 597.359375 466.222656 595.777344 470.496094 L 595.425781 471.609375 L 594.574219 474.601562 L 600.171875 471.789062 L 609.28125 471.089844 C 607.140625 476.65625 601.925781 480.230469 596.886719 482.980469 L 596.714844 485.792969 L 596.066406 489.898438 L 594.574219 495.117188 L 593.8125 497.523438 C 592.4375 501.796875 590.9375 505.902344 589.535156 510.007812 C 581.890625 510.007812 574.355469 510.007812 566.710938 510.007812 L 569.964844 502.5625 L 564.015625 510.007812 L 555.988281 510.007812 L 563.074219 501.277344 L 562.140625 501.097656 C 558.886719 504.617188 555.339844 507.78125 551.0625 509.65625 L 547.253906 510.589844 L 547.34375 507.953125 L 551.917969 499.570312 C 554.789062 497.171875 558.714844 496.8125 562.257812 497.523438 L 569.964844 499.984375 L 570.429688 498.457031 L 571.570312 494.351562 L 571.832031 493.238281 L 572.859375 488.785156 L 573.324219 486.324219 L 572.472656 477.007812 L 568.105469 471.265625 C 564.945312 467.925781 561.773438 464.761719 559.726562 460.425781 L 559.167969 459.132812 L 560.078125 451.515625 C 563.644531 447.234375 568.390625 444.421875 573.429688 442.371094 " fill-opacity="1" fill-rule="nonzero"/><path fill="#f7c900" d="M 391.566406 446.828125 L 394.46875 445.714844 L 398.570312 446.648438 L 401.089844 449.636719 L 401.90625 450.753906 L 402.375 450.753906 L 409.171875 446.828125 L 414.589844 450.222656 L 418.488281 447.0625 L 422.414062 446.125 L 423.230469 446.476562 L 424.078125 447.941406 L 424.078125 452.449219 L 419.417969 455.207031 L 411.59375 455.207031 L 414.199219 461.945312 L 412.789062 467.511719 L 419.148438 471.789062 L 417.917969 467.917969 L 417.828125 465.277344 L 420.261719 463.230469 C 423.691406 463.230469 426.503906 466.042969 427.789062 469.03125 L 427.789062 471.433594 L 421.636719 475.007812 C 418.125 475.707031 414.488281 475.359375 410.855469 475.359375 L 410.945312 478.167969 L 416.714844 481.511719 L 417.183594 482.804688 L 410.851562 483.738281 L 410.941406 488.597656 L 408.800781 490.0625 L 406.195312 486.308594 L 405.988281 484.84375 L 404.785156 485.429688 L 399.746094 483.550781 L 405.988281 478.164062 L 406.546875 475 C 402.558594 475.53125 398.460938 475.703125 394.535156 474.765625 L 390.171875 471.425781 L 390.171875 468.613281 L 390.347656 467.910156 L 392.488281 464.164062 L 398.34375 463.816406 L 399.574219 468.621094 L 398.34375 471.78125 L 397.4375 472.195312 C 400.949219 472.957031 404.703125 469.96875 404.703125 466.394531 L 403.296875 463.402344 L 403.589844 458.945312 L 406.078125 455.425781 C 402.09375 456.128906 397.609375 456.71875 393.800781 454.492188 L 390.636719 451.152344 L 390.636719 448.519531 Z M 391.566406 446.828125 " fill-opacity="1" fill-rule="nonzero"/><path fill="#f7c900" d="M 526.664062 395.78125 L 526.484375 395.78125 C 524.140625 395.429688 521.242188 391.675781 518.753906 388.164062 L 516.316406 384.410156 C 517.898438 390.035156 518.285156 397.480469 518.285156 397.480469 L 518.375 397.828125 L 517.996094 397.828125 C 512.308594 396.363281 507.097656 387.570312 505.511719 384.820312 C 505.601562 390.390625 508.96875 394.667969 510.730469 396.542969 L 511.664062 397.480469 L 512.050781 397.828125 L 511.582031 397.828125 L 510.648438 398.007812 L 506.074219 395.609375 L 501.503906 390.21875 C 498.628906 386.292969 496.375 382.367188 496.375 382.367188 L 496.957031 382.015625 L 499.914062 387.054688 L 506.445312 395.257812 L 510.632812 397.484375 L 511.011719 397.484375 C 509.519531 396.191406 504.945312 391.332031 504.945312 384.417969 L 504.945312 383.652344 L 505.035156 382.539062 L 506.527344 385.523438 L 509.429688 389.800781 L 517.808594 397.300781 L 517.046875 391.148438 C 516.578125 387.75 515.753906 383.878906 514.441406 381.417969 L 514.351562 381.242188 L 514.910156 380.890625 L 514.910156 381.070312 C 515.285156 381.597656 516.957031 384.820312 519.21875 387.984375 C 521.535156 391.324219 524.519531 394.839844 526.484375 395.25 L 526.664062 395.015625 L 527.394531 394.316406 L 528.417969 390.390625 L 528.328125 389.628906 L 528.886719 389.449219 L 528.886719 390.382812 C 528.890625 394.316406 526.664062 395.609375 526.664062 395.78125 M 493.96875 395.960938 L 488.460938 389.804688 L 486.054688 385.171875 L 485.757812 391.503906 L 485.203125 391.324219 L 485.582031 384.058594 L 486.136719 384.058594 L 488.921875 389.449219 L 493.664062 395.25 C 493.402344 393.554688 492.550781 386.457031 492.550781 382.945312 L 492.730469 380.898438 L 493.316406 381.074219 L 493.109375 382.953125 L 493.664062 390.75 L 494.222656 395.789062 L 494.339844 396.199219 Z M 476.738281 336.1875 L 477.179688 335.777344 L 478.789062 337.476562 L 483.0625 341.398438 C 486.695312 344.148438 491.265625 346.789062 495.542969 346.789062 L 495.632812 346.789062 L 491.4375 339.171875 L 491.4375 338.589844 L 491.527344 338.238281 L 491.90625 338.417969 L 497.296875 341.40625 L 507.285156 344.398438 L 509.421875 344.164062 L 506.988281 341.9375 L 504.089844 337.660156 L 504.203125 337.480469 L 504.203125 337.308594 L 504.464844 337.308594 L 507.546875 337.660156 L 514.167969 338.011719 C 517.417969 338.011719 520.5 337.660156 521.8125 336.367188 L 522.160156 336.898438 C 520.582031 338.246094 517.410156 338.59375 514.160156 338.59375 C 510.054688 338.59375 505.867188 338.011719 504.636719 337.832031 L 507.359375 341.578125 L 510.144531 343.984375 L 510.523438 344.15625 L 510.054688 344.390625 L 507.269531 344.921875 C 501.675781 344.921875 493.851562 340.292969 491.972656 339.179688 L 494.113281 344.164062 L 496.339844 346.976562 L 496.808594 347.328125 L 495.515625 347.328125 C 486.496094 347.320312 476.738281 336.1875 476.738281 336.1875 Z M 479.523438 349.019531 L 477.765625 350.480469 L 477.179688 350.714844 L 474.574219 349.019531 L 472.8125 345.503906 L 472.519531 343.042969 L 473.101562 340.464844 L 474.863281 338.765625 L 475.417969 338.765625 L 478.023438 340.285156 L 479.695312 343.804688 L 480.074219 346.207031 Z M 643.957031 468.859375 L 639.386719 461.007812 L 639.296875 453.160156 L 640.878906 445.890625 L 641.640625 443.898438 L 642.371094 442.199219 L 646.179688 433.414062 C 647.964844 429.308594 649.726562 425.265625 651.21875 421.164062 L 653.445312 413.484375 C 654.207031 409.792969 654.765625 406.046875 654.207031 402.523438 C 653.742188 398.769531 652.070312 395.4375 649.375 392.976562 L 642.457031 388.871094 C 644.976562 386.292969 646.941406 383.304688 648.234375 379.960938 C 650.191406 375.273438 651.601562 370.0625 650.488281 364.84375 L 650.28125 364.140625 L 647.03125 358.339844 C 643.222656 353.886719 637.445312 351.425781 631.761719 349.789062 C 622.328125 347.148438 612.457031 346.625 602.785156 347.148438 L 599.148438 347.730469 C 594.574219 349.195312 589.914062 350.894531 584.964844 350.894531 L 577.4375 348.253906 C 573.976562 346.027344 571.105469 343.035156 568.121094 340.054688 L 567.359375 340.054688 L 566.800781 344.390625 L 566.066406 348.847656 L 562.257812 344.570312 L 562.140625 344.390625 L 561.410156 342.515625 L 561.410156 339.171875 L 563.726562 335.070312 L 564.667969 334.65625 L 555.085938 333.722656 L 548.636719 339.34375 L 549.015625 336.882812 L 551.449219 331.316406 L 556.75 325.511719 L 563.835938 327.390625 L 570.988281 332.25 L 571.570312 332.429688 C 571.570312 328.503906 571.570312 324.398438 571.660156 320.535156 C 574.445312 324.046875 576.878906 327.800781 579.484375 331.316406 L 580.6875 332.429688 C 581.15625 329.085938 582.097656 325.925781 582.097656 322.582031 L 582.914062 322.351562 L 585.257812 326.277344 L 585.257812 329.617188 L 582.359375 334.65625 L 590.300781 333.191406 L 593.082031 326.105469 L 596.074219 328.914062 C 598.300781 331.671875 600.734375 334.304688 603.898438 335.769531 C 606.769531 337.117188 609.960938 337.820312 613.125 338.230469 L 609.84375 330.964844 L 610.3125 331.492188 C 617.398438 335.070312 624.289062 339.523438 632.113281 341.160156 C 635.390625 341.921875 639.199219 341.921875 641.894531 339.695312 L 644.5 333.894531 C 644.5 330.199219 639.839844 327.390625 636.585938 329.265625 L 633.425781 333.542969 L 633.335938 337.996094 L 627.445312 334.476562 C 614.964844 327.039062 601.835938 320.292969 587.769531 315.839844 C 580.589844 313.789062 573.144531 312.085938 565.679688 312.847656 C 559.824219 314.132812 554.046875 315.839844 548.917969 319 C 544.902344 321.40625 541.273438 324.804688 539.308594 329.082031 C 537.816406 333.007812 537.375 337.28125 538.023438 341.386719 L 538.839844 345.492188 L 534.386719 352.523438 L 534.179688 352.9375 L 534.386719 358.15625 L 535.789062 362.257812 L 536.785156 363.902344 L 537.253906 363.902344 L 538.742188 359.796875 L 544.636719 352.53125 L 547.976562 352 L 553.835938 356.105469 L 560.195312 358.917969 C 564.738281 360.210938 569.507812 360.964844 574.261719 361.675781 L 581.320312 361.851562 C 587.679688 361.675781 593.914062 361.503906 600.039062 360.210938 C 604.902344 358.683594 609.5625 356.636719 614.484375 355.519531 L 622.980469 355.171875 C 628.28125 356.867188 632.765625 361.324219 634.4375 366.714844 L 634.902344 370.054688 C 634.902344 373.449219 634.902344 376.613281 634.902344 379.953125 C 631.355469 379.953125 627.816406 379.605469 624.472656 378.429688 L 617.851562 375.851562 C 614.484375 374.566406 610.765625 374.152344 607.128906 374.566406 C 594.734375 374.742188 582.722656 378.433594 570.710938 380.71875 L 562.242188 382.183594 C 553.484375 384.410156 544.25 384.230469 535.402344 386.109375 L 527.023438 387.042969 L 527.757812 386.863281 L 529.984375 383.289062 L 527.9375 377.898438 L 525.796875 378.835938 L 524.863281 378.835938 L 521.816406 375.257812 L 518.738281 368.578125 C 517.335938 365.234375 516.132812 362.074219 515.574219 360.375 L 514.082031 373.792969 L 504.941406 360.554688 L 506.816406 370.984375 L 506.699219 371.746094 L 506.261719 372.332031 L 506.144531 372.332031 L 504.09375 371.394531 L 501.023438 369.699219 L 497.589844 367.46875 L 497.296875 376.199219 L 496.828125 378.835938 L 496.476562 379.007812 L 496.269531 379.007812 L 494.601562 377.308594 L 492.078125 374.144531 L 488.53125 369.691406 L 488.996094 369.339844 L 495.0625 376.957031 L 496.355469 378.25 L 496.46875 378.25 L 496.648438 376.957031 L 496.945312 372.851562 L 497.117188 367.050781 L 497.117188 366.519531 L 497.496094 366.699219 L 504.292969 370.976562 L 506.136719 371.738281 L 506.253906 370.976562 L 505.113281 364.121094 L 504 359.261719 L 504.464844 359.082031 L 513.691406 372.089844 L 515.183594 359.082031 L 515.742188 359.082031 C 515.742188 359.082031 516.558594 361.660156 517.878906 364.824219 C 519.082031 368.21875 520.78125 372.324219 522.363281 375.082031 L 525.054688 378.242188 L 525.785156 378.421875 L 527.660156 377.128906 L 527.367188 377.300781 L 529.890625 354.214844 L 526.457031 351.988281 L 521.507812 347.53125 L 515.742188 341.550781 L 516.207031 355.320312 L 511.339844 350.867188 L 511.546875 353.679688 L 511.339844 355.320312 L 510.316406 356.257812 L 508.089844 355.320312 L 505.097656 353.273438 L 501.9375 350.695312 L 502.3125 354.800781 L 502.019531 357.027344 L 500.996094 358.140625 L 500.816406 358.320312 L 498.382812 357.207031 L 495.128906 354.976562 L 492.523438 352.929688 L 494.402344 356.09375 L 497.097656 362.421875 L 496.800781 363.1875 L 496.242188 363.367188 L 496.152344 363.367188 L 492.902344 361.847656 L 488.507812 358.328125 L 483.03125 353.457031 L 483.496094 353.109375 L 486.839844 356.097656 L 493.171875 361.316406 L 496.160156 362.78125 L 496.367188 362.78125 L 496.484375 362.429688 L 493.96875 356.277344 L 491.273438 351.824219 L 491.625 351.417969 L 494.058594 353.464844 L 498.71875 356.863281 L 500.855469 357.742188 L 500.945312 357.570312 L 501.503906 356.867188 L 501.796875 354.820312 L 501.332031 349.960938 L 501.152344 349.195312 L 501.796875 349.78125 L 504.117188 351.65625 L 508.417969 354.820312 L 510.351562 355.753906 L 510.816406 355.171875 L 511.023438 353.707031 L 510.730469 350.132812 L 510.550781 349.367188 L 515.679688 354.058594 L 515.121094 340.054688 L 515.589844 340.636719 L 519.578125 344.742188 L 526.84375 351.65625 L 530.007812 353.472656 L 530.859375 346.027344 C 530.210938 342.6875 528.632812 339.523438 526.375 336.710938 L 526.375 336.359375 L 533.085938 330.972656 L 534.964844 325.167969 L 535.222656 323.875 C 529.921875 325.925781 524.058594 329.09375 518.085938 327.390625 L 516.414062 323.113281 L 508.679688 316.195312 L 508.035156 316.019531 L 507.945312 322.351562 L 503.757812 327.039062 L 499.363281 321.414062 C 497.046875 319.367188 493.769531 318.074219 490.605469 318.253906 L 491.074219 319.601562 L 491.074219 325.519531 L 484.570312 330.558594 L 480.554688 324.988281 L 473.667969 323.292969 L 466.867188 326.867188 C 470.765625 327.394531 475.246094 328.914062 477.007812 333.019531 C 473.109375 333.191406 469.273438 334.132812 465.554688 335.070312 C 460.605469 336.359375 455.679688 337.824219 450.726562 339.34375 L 448.234375 339.695312 L 449.054688 339.34375 L 451.101562 334.65625 L 448.230469 333.019531 L 439.640625 335.246094 L 440.199219 340.636719 L 444.476562 346.613281 L 449.980469 350.886719 L 455.578125 347.546875 L 460.707031 354.984375 L 468.234375 358.148438 L 468.324219 351.410156 L 475.328125 358.328125 L 480.71875 364.128906 L 482.976562 367.820312 L 483.53125 369.347656 L 483.882812 370.8125 L 484.179688 372.335938 L 484.554688 374.332031 C 481.097656 373.21875 477.640625 371.753906 473.921875 371.574219 C 470.757812 371.402344 467.679688 372.105469 464.515625 372.6875 L 464.605469 367.0625 L 458.363281 368.238281 L 451.183594 368.417969 C 447.554688 367.835938 444.035156 366.71875 440.578125 365.957031 L 443.183594 373.808594 L 442.535156 381.605469 L 438.144531 386.113281 L 444.476562 385.703125 C 448.023438 384.058594 451.007812 381.246094 453.53125 378.257812 C 453.152344 382.359375 452.59375 386.636719 451.300781 390.742188 L 452.03125 390.742188 L 456.308594 384.820312 L 457.070312 381.832031 L 457.242188 378.257812 L 460.699219 378.257812 L 460.320312 379.953125 L 459.855469 381.597656 L 459.945312 384.058594 L 460.589844 386.285156 L 464.605469 390.039062 L 464.605469 384.820312 L 466.097656 380.71875 L 469.816406 378.078125 L 469.644531 379.777344 L 468.792969 383.289062 L 468.234375 386.453125 L 467.769531 387.214844 L 470.757812 386.628906 L 475.152344 381.0625 L 475.796875 380.476562 L 478.960938 383.640625 L 479.050781 391.839844 C 474.773438 393.367188 470.578125 395.417969 466.859375 397.816406 L 457.628906 404.320312 C 452.589844 408.066406 448.402344 412.933594 446.058594 418.675781 C 443.738281 424.296875 443.566406 430.800781 445.410156 436.546875 L 445.5 437.3125 L 446.058594 438.832031 L 446.640625 440.296875 L 450.449219 446.449219 L 457.804688 455.007812 C 462.082031 458.761719 467.03125 461.574219 471.605469 464.914062 L 471.515625 458.410156 L 470.839844 449.09375 C 470.839844 445.699219 470.488281 442.179688 470.488281 438.839844 L 470.285156 433.386719 L 471.863281 442.53125 L 472.242188 449.445312 L 472.332031 455.015625 L 473.269531 459.117188 L 475.027344 465.855469 L 476.140625 470.132812 L 477.75 477.398438 C 478.191406 481.324219 478.484375 485.429688 477.75 489.292969 L 472.414062 496.558594 C 469.253906 497.90625 465.820312 496.792969 462.542969 497.324219 L 456.597656 499.019531 L 453.226562 504.589844 L 452.761719 506.988281 L 451.941406 509.980469 L 451.296875 510.152344 L 457.710938 509.621094 L 465.238281 503.289062 L 462.632812 507.746094 L 462.074219 508.679688 L 461.429688 510.378906 L 467.582031 509.613281 C 471.128906 508.089844 473.441406 504.925781 476.339844 502.347656 L 476.339844 503.28125 L 476.132812 503.453125 L 471.769531 510.371094 C 481.085938 510.371094 490.398438 510.371094 499.8125 510.371094 L 503.828125 507.378906 L 501.949219 498.820312 L 501.015625 496.179688 L 500.835938 493.542969 L 509.59375 488.152344 L 514.339844 482.933594 L 515.191406 479.59375 L 509.59375 480.355469 C 504.933594 481.054688 500.566406 483.105469 496.175781 484.980469 L 497.496094 482.226562 L 499.632812 476.601562 L 500.367188 474.023438 L 502.039062 469.164062 C 505.496094 464.472656 509.511719 460.371094 512.765625 455.570312 C 516.574219 450.53125 519.5625 444.964844 522.167969 439.160156 L 522.257812 438.226562 L 522.84375 438.226562 L 522.636719 437.460938 L 523.105469 437.460938 L 522.933594 436.347656 L 523.28125 436.347656 L 524.128906 433.1875 L 524.21875 435.648438 L 523.867188 435.648438 L 523.75 436.527344 L 523.28125 438.226562 L 523.191406 438.226562 L 521.613281 442.503906 L 520.203125 445.84375 L 519.644531 447.019531 C 517.976562 450.179688 516.125 453.351562 513.960938 456.511719 C 510.707031 461.140625 506.808594 465.246094 502.882812 469.519531 L 502.882812 471.746094 L 502.238281 472.160156 L 508.480469 471.226562 C 524.683594 467.480469 539.976562 460.617188 554.308594 452.238281 C 557.945312 449.949219 561.953125 448.3125 565.410156 445.671875 C 569.132812 443.265625 573.144531 441.214844 577.421875 439.929688 C 582.460938 438.410156 588.121094 437.46875 593.160156 439.519531 L 599.691406 445.140625 L 608.070312 452.9375 L 613.667969 457.976562 C 616.363281 460.382812 619.523438 463.015625 620.375 466.769531 L 620.84375 468.996094 C 621.023438 472.160156 620.933594 475.328125 620.726562 478.492188 L 621.195312 487.808594 L 620.460938 494.3125 L 619.992188 495.605469 L 613.28125 495.433594 C 610.03125 493.789062 606.105469 492.675781 602.46875 493.789062 C 598.363281 495.074219 595.847656 499.007812 594.554688 502.699219 L 593.53125 506.976562 L 593.234375 510.371094 L 597.71875 509.609375 L 601.902344 506.617188 L 600.617188 509.957031 L 599.945312 510.128906 L 608.910156 509.429688 L 613.570312 505.324219 L 611.136719 510.363281 L 615.503906 511.066406 C 618.871094 511.300781 622.210938 511.828125 625.671875 511.828125 L 625.847656 506.960938 L 631.445312 508.839844 C 635.371094 509.953125 639.738281 510.363281 643.660156 508.660156 L 645.421875 505.316406 L 645.25 503.621094 L 644.578125 500.277344 L 643.929688 498.050781 L 642.988281 491.71875 L 645.980469 485.917969 L 640.472656 479.585938 L 649.617188 478.300781 C 652.984375 477.1875 655.589844 474.375 657.261719 471.210938 C 652.804688 471.4375 647.882812 471.4375 643.957031 468.859375 Z M 477.179688 340.996094 L 475.417969 339.882812 L 475.160156 339.882812 L 474.132812 340.816406 L 473.667969 343.042969 L 473.925781 345.269531 L 475.417969 348.496094 L 477.179688 349.609375 L 477.476562 349.375 L 478.5 348.496094 L 478.96875 346.210938 L 478.671875 344.164062 Z M 477.179688 340.996094 " fill-opacity="1" fill-rule="nonzero"/></svg>